<?xml version="1.0" encoding="UTF-8"?>
<svg version="1.1" viewBox="0 0 178.85 178.85" xmlns="http://www.w3.org/2000/svg">
<g transform="translate(-150.58 -90.575)">
<g stroke-dasharray="" stroke-miterlimit="10" style="mix-blend-mode:normal" data-paper-data='{"isPaintingLayer":true}'>
<path d="m150.58 269.42v-178.85h178.85v178.85z" fill="#3475ff" stroke-width="0"/>
<g data-paper-data='{"origPos":null}'>
<path d="m240 253.5c-40.593 0-73.5-32.907-73.5-73.5s32.907-73.5 73.5-73.5c40.593 0 73.5 32.907 73.5 73.5s-32.907 73.5-73.5 73.5z" fill="#a5a5a5" stroke-width="NaN" data-paper-data='{"origPos":null,"index":null}'/>
<path d="m240.5 250.5c-38.384 0-69.5-31.116-69.5-69.5s31.116-69.5 69.5-69.5 69.5 31.116 69.5 69.5-31.116 69.5-69.5 69.5z" fill="#d3d3d3" stroke-width="NaN" data-paper-data='{"origPos":null,"index":null}'/>
<path d="m245.25 242.83c-36.865 0-66.75-29.885-66.75-66.75s29.885-66.75 66.75-66.75 66.75 29.885 66.75 66.75-29.885 66.75-66.75 66.75z" fill="#fff" stroke-width="NaN" data-paper-data='{"origPos":null,"index":null}'/>
<path d="m229.75 166.5c0 10.77-1.6789 19.5-3.75 19.5s-3.75-8.7304-3.75-19.5 1.6789-19.5 3.75-19.5 3.75 8.7304 3.75 19.5z" stroke-width="0" data-paper-data='{"origPos":null}'/>
<path d="m271.75 167.3c0 10.052-1.567 18.2-3.5 18.2s-3.5-8.1484-3.5-18.2 1.567-18.2 3.5-18.2 3.5 8.1484 3.5 18.2z" stroke-width="0" data-paper-data='{"origPos":null}'/>
<path d="m226.11 212.77c5.2037-2.0847 32.438-0.18822 31.252 5.6271-1.2412 6.088-12.695 10.017-18.783 8.7758 0 0-6.2286-1.5859-9.3611-3.9306-2.8748-2.1519-4.9881-9.719-3.1078-10.472z" fill="#774a4a" stroke="#000" stroke-width="2" data-paper-data='{"origPos":null,"origRot":0}'/>
<path d="m227.9 218.52c0-2.7614 18.309 4.0158 23.635 4.0158s-7.3093 3.7794-12.635 3.7794c0 0-11-5.0337-11-7.7952z" fill="#ff2020" stroke-width="0" data-paper-data='{"origPos":null}'/>
<path d="m210.25 146.57s0.26763-5.399 7.0032-8.1253c5.7166-2.3138 15.028-2.5103 15.028-2.5103" fill="none" stroke="#000" stroke-linecap="round" stroke-width="2.5" data-paper-data='{"origPos":null}'/>
<path d="m252.79 142.02s2.1362-1.7726 3.5518-2.3045c1.6746-0.62912 2.6392-0.23581 4.4196-0.40951 2.8186-0.27499 14.06 2.3341 14.06 2.3341" fill="none" stroke="#000" stroke-linecap="round" stroke-width="2.5" data-paper-data='{"origPos":null}'/>
</g>
</g>
</g>
</svg>
